<?xml version="1.0" encoding="UTF-8"?><svg id="uuid-8dce0073-03b4-4764-9dc4-342cee5d988c" xmlns="http://www.w3.org/2000/svg" viewBox="0 0 502.2961 225.9501"><defs><style>.uuid-fbc48504-78a5-4562-85c2-8ba1fa1c9b46{stroke-width:8px;}.uuid-fbc48504-78a5-4562-85c2-8ba1fa1c9b46,.uuid-5deeb0b6-2c49-496e-a5cc-010ccf7bf549,.uuid-35ca70f4-ccd1-4373-9ad3-edf838ab410c,.uuid-6220412c-c3b6-4d3e-95f7-ca56c7bb5406,.uuid-561f6aa2-814e-40f4-90d4-e69d424bfaac{fill:none;stroke:#fff;stroke-miterlimit:10;}.uuid-187e1cbc-ab63-481e-a25b-3108efb1749e{fill:#fff;}.uuid-5deeb0b6-2c49-496e-a5cc-010ccf7bf549{stroke-width:4px;}.uuid-35ca70f4-ccd1-4373-9ad3-edf838ab410c{stroke-width:6px;}.uuid-6220412c-c3b6-4d3e-95f7-ca56c7bb5406{stroke-width:3px;}.uuid-561f6aa2-814e-40f4-90d4-e69d424bfaac{stroke-width:10px;}</style></defs><path class="uuid-187e1cbc-ab63-481e-a25b-3108efb1749e" d="M211.5669,173.1307L243.9663,17.7337l18.7998,38.3994-22.5996,116.9976h-28.5996ZM355.5649,17.7337l32.3994,155.397h-28.5996l-22.5996-116.9976,18.7998-38.3994Z"/><polyline class="uuid-561f6aa2-814e-40f4-90d4-e69d424bfaac" points=".9659 185.91 199.3473 185.91 445.7437 185.91"/><path class="uuid-fbc48504-78a5-4562-85c2-8ba1fa1c9b46" d="M195.4103,182.6878L232.7725,10.1711c.3916-1.8486,2.0235-3.1711,3.9132-3.1711h33.4654"/><path class="uuid-fbc48504-78a5-4562-85c2-8ba1fa1c9b46" d="M493.3362,210.963H64.3556c-1.2666,0-2.4654-.5719-3.2623-1.5563l-18.5718-22.9411"/><circle class="uuid-187e1cbc-ab63-481e-a25b-3108efb1749e" cx="493.2961" cy="211.0741" r="9"/><line class="uuid-35ca70f4-ccd1-4373-9ad3-edf838ab410c" x1="250.9659" y1="182.6878" x2="261.9288" y2="126.2433"/><circle class="uuid-187e1cbc-ab63-481e-a25b-3108efb1749e" cx="261.8177" cy="126.2433" r="7"/><path class="uuid-187e1cbc-ab63-481e-a25b-3108efb1749e" d="M12.7998,87.5497h41.3994c11.7998,0,20.1997-.6001,20.1997-15.7998,0-11.5996-7.3999-16.1997-20.1997-16.1997H13.1997v-23.9995h43.3994c26.3994,0,45.7993,11.5996,45.7993,40.3994,0,26.3994-16.1997,39.5986-41.3994,39.5986l43.7993,61.5996h-31.3994L12.7998,87.5497Z"/><path class="uuid-187e1cbc-ab63-481e-a25b-3108efb1749e" d="M109.1987,133.1483c0-25.3994,19-42.3989,42.3994-42.3989s42.3994,16.9995,42.3994,42.3989v.8008h-21.1997v-.8008c0-13.999-9.5996-21.5996-21.1997-21.5996s-21.1997,7.6006-21.1997,21.5996,9.6001,21.5996,21.1997,21.5996h2.3999v20.7998h-2.3999c-23.3994,0-42.3994-16.999-42.3994-42.3994Z"/><path class="uuid-187e1cbc-ab63-481e-a25b-3108efb1749e" d="M422.1772,48.9501c7,0,12.5996,5.6001,12.5996,12.6001s-5.5996,12.5996-12.5996,12.5996-12.5996-5.6001-12.5996-12.5996,5.5996-12.6001,12.5996-12.6001ZM410.9771,93.1498h22.4004v79.9985h-22.4004v-79.9985Z"/><rect class="uuid-187e1cbc-ab63-481e-a25b-3108efb1749e" x="140.6325" y="129.3915" width="24" height="8" rx="4" ry="4"/><line class="uuid-6220412c-c3b6-4d3e-95f7-ca56c7bb5406" x1="367.0338" y1="17.4294" x2="399.4312" y2="172.8211"/><path class="uuid-35ca70f4-ccd1-4373-9ad3-edf838ab410c" d="M251.6325,7.5767l21.9641,45.1954c.7016,1.4437,2.166,2.3602,3.7712,2.3602h45.085c1.6102,0,3.0842-.9036,3.8147-2.3386l21.3551-43.827c.5516-1.0804,1.6622-1.7603,2.8752-1.7603h20.0605"/><polygon class="uuid-187e1cbc-ab63-481e-a25b-3108efb1749e" points="311.2941 107.0767 287.5266 107.0767 277.1891 85.8545 321.6316 85.8545 311.2941 107.0767"/><circle class="uuid-5deeb0b6-2c49-496e-a5cc-010ccf7bf549" cx="375.4474" cy="7" r="5"/><line class="uuid-35ca70f4-ccd1-4373-9ad3-edf838ab410c" x1="348.8177" y1="182.6878" x2="337.8548" y2="126.2433"/><circle class="uuid-187e1cbc-ab63-481e-a25b-3108efb1749e" cx="337.9659" cy="126.2433" r="7"/><circle class="uuid-5deeb0b6-2c49-496e-a5cc-010ccf7bf549" cx="274.4474" cy="7" r="5"/></svg>