<svg id="Gruppe_101" data-name="Gruppe 101" xmlns="http://www.w3.org/2000/svg" width="198.945" height="118.04" viewBox="0 0 198.945 118.04">
  <path id="Pfad_70" data-name="Pfad 70" d="M154.24,300.51a5.915,5.915,0,0,0,2.321-2.456,8.668,8.668,0,0,0,0-7.36,5.928,5.928,0,0,0-2.313-2.457,6.755,6.755,0,0,0-3.461-.87H140.338V310.8h4.494v-9.422h2.727l5.376,9.422h5.446l-5.7-9.656A6.235,6.235,0,0,0,154.24,300.51Zm-9.408-8.89h5.594a2.129,2.129,0,0,1,2.042,1.3,3.452,3.452,0,0,1,.287,1.449,3.646,3.646,0,0,1-.3,1.449,2.134,2.134,0,0,1-2.026,1.3h-5.594ZM165.3,307.048h8.738l1.339,3.753h4.839l-9.12-23.418H168.24l-9.12,23.418h4.839Zm4.369-12.24,2.851,7.988h-5.7ZM187.5,310.8h-4.659V287.383H187.5Zm9.416-4.252h11.482V310.8H192.418V287.383h4.494Zm18.273-10.661v6.426a5.318,5.318,0,0,0,.468,2.335,3.309,3.309,0,0,0,1.353,1.474,4.256,4.256,0,0,0,2.148.507,3.655,3.655,0,0,0,1.772-.427,3.7,3.7,0,0,0,1.329-1.248,5.738,5.738,0,0,0,.787-2H227.7a11.964,11.964,0,0,1-1.615,4.373,7.874,7.874,0,0,1-2.92,2.762,8.319,8.319,0,0,1-4.011.95,9.845,9.845,0,0,1-4.658-1.023,6.872,6.872,0,0,1-2.952-2.98,10.139,10.139,0,0,1-1.017-4.727v-6.426a10.146,10.146,0,0,1,1.017-4.728,6.923,6.923,0,0,1,2.952-2.987,9.787,9.787,0,0,1,4.658-1.031,8.359,8.359,0,0,1,4.019.95,7.847,7.847,0,0,1,2.928,2.762,11.771,11.771,0,0,1,1.6,4.373h-4.658a5.866,5.866,0,0,0-.812-1.981,3.874,3.874,0,0,0-1.328-1.256,3.523,3.523,0,0,0-1.748-.435,4.262,4.262,0,0,0-2.148.507,3.3,3.3,0,0,0-1.353,1.482A5.375,5.375,0,0,0,215.185,295.888Zm22.456-8.5-9.12,23.418h4.839l1.339-3.753h8.738l1.34,3.753h4.839l-9.12-23.418ZM236.216,302.8l2.852-7.988,2.851,7.988Zm31.36-15.413H273.5V310.8h-4.084V294.172l-4.4,14.02h-3.97l-4.4-13.709V310.8h-4.084V287.383h5.922l4.543,15.784Zm24.662.894a8.318,8.318,0,0,0-3.929-.894h-9.563V310.8h4.5v-9.083h5.068a8.376,8.376,0,0,0,3.929-.886,6.382,6.382,0,0,0,2.632-2.5,8.046,8.046,0,0,0,0-7.529A6.413,6.413,0,0,0,292.239,288.277Zm-1.435,7.8a2.5,2.5,0,0,1-.96,1.023,2.741,2.741,0,0,1-1.419.362h-5.183v-5.83h5.183a2.78,2.78,0,0,1,1.436.362,2.437,2.437,0,0,1,.951,1.031,3.378,3.378,0,0,1,.336,1.538A3.222,3.222,0,0,1,290.8,296.08Zm21.127-8.7h4.494v14.946a10.041,10.041,0,0,1-1.025,4.711,6.9,6.9,0,0,1-2.985,2.98,11.36,11.36,0,0,1-9.424,0,6.851,6.851,0,0,1-2.969-2.98A10.1,10.1,0,0,1,299,302.329V287.383H303.5v15.059a4.251,4.251,0,0,0,1.1,3.125,4.163,4.163,0,0,0,3.1,1.111,3.857,3.857,0,0,0,4.232-4.236Zm25.343,16.525v.032a6.735,6.735,0,0,1-1.066,3.833,6.646,6.646,0,0,1-3.108,2.432,12.925,12.925,0,0,1-4.913.838,16.407,16.407,0,0,1-3.338-.338,14.5,14.5,0,0,1-3.067-.991,11.759,11.759,0,0,1-2.567-1.57L321.3,304.5a10.157,10.157,0,0,0,3.182,1.715,11.587,11.587,0,0,0,3.707.6,6.62,6.62,0,0,0,3.412-.733,2.3,2.3,0,0,0,1.214-2.069V304a2.015,2.015,0,0,0-.542-1.481,3.225,3.225,0,0,0-1.41-.805,17.481,17.481,0,0,0-2.231-.467.328.328,0,0,0-.091-.016.3.3,0,0,1-.09-.015l-.361-.049a22.493,22.493,0,0,1-3.97-.926,5.832,5.832,0,0,1-2.674-1.949,6.247,6.247,0,0,1-1.1-3.953v-.017a7.035,7.035,0,0,1,1.033-3.881,6.5,6.5,0,0,1,3-2.456,12.022,12.022,0,0,1,4.757-.845,12.322,12.322,0,0,1,2.616.29,14.4,14.4,0,0,1,2.617.838,14.63,14.63,0,0,1,2.427,1.32l-1.9,3.736a12.138,12.138,0,0,0-2.879-1.449,8.845,8.845,0,0,0-2.878-.516,6.332,6.332,0,0,0-3.2.669,2.079,2.079,0,0,0-1.132,1.876v.016a2.164,2.164,0,0,0,.59,1.6,3.538,3.538,0,0,0,1.461.862,23.373,23.373,0,0,0,2.444.58,1.182,1.182,0,0,0,.131.024,1.222,1.222,0,0,1,.131.024,1.91,1.91,0,0,1,.189.04,1.863,1.863,0,0,0,.189.041,20.229,20.229,0,0,1,3.781,1.055,5.871,5.871,0,0,1,2.534,2A6.2,6.2,0,0,1,337.273,303.908ZM153.124,315.876a10.275,10.275,0,0,0-9.136,0,7.516,7.516,0,0,0-3.059,3.028,9.211,9.211,0,0,0-1.083,4.534v6.635a9.21,9.21,0,0,0,1.083,4.534,7.515,7.515,0,0,0,3.059,3.028,10.274,10.274,0,0,0,9.136,0,7.523,7.523,0,0,0,3.059-3.028,9.211,9.211,0,0,0,1.083-4.534v-6.635a9.211,9.211,0,0,0-1.083-4.534A7.524,7.524,0,0,0,153.124,315.876Zm-.517,14.31a4.5,4.5,0,0,1-.5,2.158,3.5,3.5,0,0,1-1.419,1.441,4.738,4.738,0,0,1-4.265,0A3.494,3.494,0,0,1,145,332.345a4.5,4.5,0,0,1-.5-2.158v-6.862a4.5,4.5,0,0,1,.5-2.158,3.494,3.494,0,0,1,1.418-1.441,4.737,4.737,0,0,1,4.265,0,3.5,3.5,0,0,1,1.419,1.441,4.5,4.5,0,0,1,.5,2.158Zm30.444-15.139h4.625l-5.495,23.417H177.95L173.718,322.1l-4.429,16.363h-4.232l-5.5-23.417h4.626l3.067,15.622,4.56-15.622h3.609l4.56,15.622Zm12.072,19.165h11.482v4.252H190.63V315.047h4.494Z" transform="translate(-138.328 -220.666)" fill="#464545"/>
  <path id="Pfad_71" data-name="Pfad 71" d="M251.887,208.266H264.6v5.353H249.63L236.91,201.131h-50.4a26.031,26.031,0,0,1,1.265,2.545h39.792v5.353H189.421q.242,1.252.363,2.545h24.97v5.353H189.741a26.264,26.264,0,1,1-9.206-23l6.17-6.008v-.044h56.733c5.975-.061,7.806-2.835,7.806-2.835v.248a10.939,10.939,0,1,1,.053,10.388v.243s-1.442-2.641-7.88-2.69H189l-2.613,2.545h52.786Zm15.033,5.36H272.4v-5.377H266.92Zm7.913,0h5.476v-5.377h-5.476Zm20.152-14.214a10.941,10.941,0,1,0,10.983,10.9A10.941,10.941,0,0,0,294.984,199.412Z" transform="translate(-137.388 -179.495)" fill="#464545"/>
  <path id="Pfad_72" data-name="Pfad 72" d="M267.626,193.665A5.689,5.689,0,1,1,261.915,188,5.69,5.69,0,0,1,267.626,193.665Zm28.413,14.25a5.689,5.689,0,1,0,5.711,5.667A5.689,5.689,0,0,0,296.039,207.916Zm-106.772,9.367a24.588,24.588,0,1,1-24.588-24.588A24.588,24.588,0,0,1,189.267,217.282Zm-1.677-.035a22.818,22.818,0,1,0-22.818,22.818A22.844,22.844,0,0,0,187.591,217.248Zm-3.793,0a19.025,19.025,0,1,1-19.024-19.024A19.046,19.046,0,0,1,183.8,217.248Zm-13.428.035a5.689,5.689,0,1,0-5.689,5.689A5.69,5.69,0,0,0,170.369,217.282Z" transform="translate(-138.422 -182.747)" fill="#0090df"/>
</svg>
