<?xml version="1.0" encoding="UTF-8"?><svg id="uuid-b53f0776-30ff-4ad9-9126-ec03357fc583" xmlns="http://www.w3.org/2000/svg" viewBox="0 0 232.2222 191.5926"><defs><style>.uuid-d7fd98f8-de10-4d37-9b7f-9d737a87d113,.uuid-bd36a6b7-8982-47f2-b468-3b2022422f42{stroke-width:4px;}.uuid-d7fd98f8-de10-4d37-9b7f-9d737a87d113,.uuid-bd36a6b7-8982-47f2-b468-3b2022422f42,.uuid-0c74868a-4c86-432b-a9ec-625df5b5ec35{stroke:#1d1d1b;stroke-miterlimit:10;}.uuid-d7fd98f8-de10-4d37-9b7f-9d737a87d113,.uuid-0c74868a-4c86-432b-a9ec-625df5b5ec35{fill:none;}.uuid-64846934-63e6-43a4-8deb-b8057501d43a,.uuid-bd36a6b7-8982-47f2-b468-3b2022422f42{fill:#1d1d1b;}.uuid-9a410340-3f40-4be3-a29f-887d770ba99a{fill:#4682b4;}.uuid-0c74868a-4c86-432b-a9ec-625df5b5ec35{stroke-width:10px;}</style></defs><g id="uuid-bf0a1c18-e4a5-4dd1-bc83-ecf15a275ea6"><polygon class="uuid-9a410340-3f40-4be3-a29f-887d770ba99a" points="61.2597 19.7497 28.8603 175.1466 57.4599 175.1466 80.0595 58.1491 61.2597 19.7497"/><g id="uuid-83bf4199-976c-43bd-99d4-2a5b377b5dfa"><polygon class="uuid-9a410340-3f40-4be3-a29f-887d770ba99a" points="172.8583 19.7497 205.2577 175.1466 176.6581 175.1466 154.0585 58.1491 172.8583 19.7497"/></g></g><path class="uuid-0c74868a-4c86-432b-a9ec-625df5b5ec35" d="M13.7037,184.7037L51.0659,12.187c.3916-1.8486,2.0235-3.1711,3.9132-3.1711h33.4654"/><line class="uuid-0c74868a-4c86-432b-a9ec-625df5b5ec35" x1="68.2593" y1="184.7037" x2="79.2222" y2="128.2593"/><circle class="uuid-bd36a6b7-8982-47f2-b468-3b2022422f42" cx="79.1111" cy="128.2593" r="7"/><line class="uuid-0c74868a-4c86-432b-a9ec-625df5b5ec35" x1="182.5109" y1="9.0159" x2="219.1398" y2="184.7037"/><path class="uuid-0c74868a-4c86-432b-a9ec-625df5b5ec35" d="M68.9259,9.5926l21.9641,45.1954c.7016,1.4437,2.166,2.3602,3.7712,2.3602h45.085c1.6102,0,3.0842-.9036,3.8147-2.3386l21.3551-43.827c.5516-1.0804,1.6622-1.7603,2.8752-1.7603h27.9494"/><polygon class="uuid-64846934-63e6-43a4-8deb-b8057501d43a" points="128.5875 109.0926 104.8199 109.0926 94.4825 87.8704 138.925 87.8704 128.5875 109.0926"/><circle class="uuid-d7fd98f8-de10-4d37-9b7f-9d737a87d113" cx="201.7407" cy="9.0159" r="7"/><line class="uuid-0c74868a-4c86-432b-a9ec-625df5b5ec35" x1="166.1111" y1="184.7037" x2="155.1482" y2="128.2593"/><circle class="uuid-bd36a6b7-8982-47f2-b468-3b2022422f42" cx="154.2593" cy="128.2593" r="7"/><circle class="uuid-d7fd98f8-de10-4d37-9b7f-9d737a87d113" cx="93.7037" cy="9" r="7"/><line class="uuid-0c74868a-4c86-432b-a9ec-625df5b5ec35" x1="79.2222" y1="186.5926" y2="186.5926"/><line class="uuid-0c74868a-4c86-432b-a9ec-625df5b5ec35" x1="232.2222" y1="186.5926" x2="153" y2="186.5926"/></svg>