<?xml version="1.0" encoding="UTF-8"?><svg id="uuid-9ca0b494-8063-46d4-a316-8be31290a089" xmlns="http://www.w3.org/2000/svg" viewBox="0 0 502.2961 225.966"><defs><style>.uuid-5b781087-eeed-4e69-be8f-68d93cf9385b{stroke-width:4px;}.uuid-5b781087-eeed-4e69-be8f-68d93cf9385b,.uuid-1ff4a981-2364-4ec4-84e9-5db1ebdc95bb,.uuid-5d6077e8-374b-4ea0-b8d4-f7bcca989ba0,.uuid-9ac8eca4-0bd0-4eb6-b853-c522e51dc839,.uuid-e129b7da-5ffb-44e5-8e5b-50b572a674cd{fill:none;stroke:#1d1d1b;stroke-miterlimit:10;}.uuid-7a2f9cdb-78ab-499a-be27-c5402ac15474{fill:#1d1d1b;}.uuid-1ff4a981-2364-4ec4-84e9-5db1ebdc95bb{stroke-width:8px;}.uuid-5d6077e8-374b-4ea0-b8d4-f7bcca989ba0{stroke-width:6px;}.uuid-02818b40-49b2-4577-a654-79474c0f9009{fill:#4682b4;}.uuid-9ac8eca4-0bd0-4eb6-b853-c522e51dc839{stroke-width:3px;}.uuid-e129b7da-5ffb-44e5-8e5b-50b572a674cd{stroke-width:10px;}</style></defs><path class="uuid-02818b40-49b2-4577-a654-79474c0f9009" d="M211.5669,173.1466L243.9663,17.7497l18.7998,38.3994-22.5996,116.9976h-28.5996ZM355.5649,17.7497l32.3994,155.397h-28.5996l-22.5996-116.9976,18.7998-38.3994Z"/><polyline class="uuid-e129b7da-5ffb-44e5-8e5b-50b572a674cd" points=".9659 185.9259 199.3473 185.9259 445.7437 185.9259"/><path class="uuid-1ff4a981-2364-4ec4-84e9-5db1ebdc95bb" d="M195.4103,182.7037L232.7725,10.187c.3916-1.8486,2.0235-3.1711,3.9132-3.1711h33.4654"/><path class="uuid-1ff4a981-2364-4ec4-84e9-5db1ebdc95bb" d="M493.3362,210.9789H64.3556c-1.2666,0-2.4654-.5719-3.2623-1.5563l-18.5718-22.9411"/><circle class="uuid-7a2f9cdb-78ab-499a-be27-c5402ac15474" cx="493.2961" cy="211.09" r="9"/><line class="uuid-5d6077e8-374b-4ea0-b8d4-f7bcca989ba0" x1="250.9659" y1="182.7037" x2="261.9288" y2="126.2593"/><circle class="uuid-7a2f9cdb-78ab-499a-be27-c5402ac15474" cx="261.8177" cy="126.2593" r="7"/><path class="uuid-7a2f9cdb-78ab-499a-be27-c5402ac15474" d="M12.7998,87.5656h41.3994c11.7998,0,20.1997-.6001,20.1997-15.7998,0-11.5996-7.3999-16.1997-20.1997-16.1997H13.1997v-23.9995h43.3994c26.3994,0,45.7993,11.5996,45.7993,40.3994,0,26.3994-16.1997,39.5986-41.3994,39.5986l43.7993,61.5996h-31.3994L12.7998,87.5656Z"/><path class="uuid-7a2f9cdb-78ab-499a-be27-c5402ac15474" d="M109.1987,133.1642c0-25.3994,19-42.3989,42.3994-42.3989s42.3994,16.9995,42.3994,42.3989v.8008h-21.1997v-.8008c0-13.999-9.5996-21.5996-21.1997-21.5996s-21.1997,7.6006-21.1997,21.5996,9.6001,21.5996,21.1997,21.5996h2.3999v20.7998h-2.3999c-23.3994,0-42.3994-16.999-42.3994-42.3994Z"/><path class="uuid-7a2f9cdb-78ab-499a-be27-c5402ac15474" d="M422.1772,48.966c7,0,12.5996,5.6001,12.5996,12.6001s-5.5996,12.5996-12.5996,12.5996-12.5996-5.6001-12.5996-12.5996,5.5996-12.6001,12.5996-12.6001ZM410.9771,93.1657h22.4004v79.9985h-22.4004v-79.9985Z"/><rect class="uuid-02818b40-49b2-4577-a654-79474c0f9009" x="140.6325" y="129.4074" width="24" height="8" rx="4" ry="4"/><line class="uuid-9ac8eca4-0bd0-4eb6-b853-c522e51dc839" x1="367.0338" y1="17.4453" x2="399.4312" y2="172.837"/><path class="uuid-5d6077e8-374b-4ea0-b8d4-f7bcca989ba0" d="M251.6325,7.5926l21.9641,45.1954c.7016,1.4437,2.166,2.3602,3.7712,2.3602h45.085c1.6102,0,3.0842-.9036,3.8147-2.3386l21.3551-43.827c.5516-1.0804,1.6622-1.7603,2.8752-1.7603h20.0605"/><polygon class="uuid-7a2f9cdb-78ab-499a-be27-c5402ac15474" points="311.2941 107.0926 287.5266 107.0926 277.1891 85.8704 321.6316 85.8704 311.2941 107.0926"/><circle class="uuid-5b781087-eeed-4e69-be8f-68d93cf9385b" cx="375.4474" cy="7.0159" r="5"/><line class="uuid-5d6077e8-374b-4ea0-b8d4-f7bcca989ba0" x1="348.8177" y1="182.7037" x2="337.8548" y2="126.2593"/><circle class="uuid-7a2f9cdb-78ab-499a-be27-c5402ac15474" cx="337.9659" cy="126.2593" r="7"/><circle class="uuid-5b781087-eeed-4e69-be8f-68d93cf9385b" cx="274.4103" cy="7" r="5"/></svg>