<?xml version="1.0" encoding="UTF-8"?><svg id="uuid-5d0f0728-b524-4c09-a567-1787546c63c6" xmlns="http://www.w3.org/2000/svg" xmlns:xlink="http://www.w3.org/1999/xlink" viewBox="0 0 145.6429 152.3085"><defs><style>.uuid-91d11df5-a7db-475e-bd77-ab01a70bd776{fill:url(#uuid-e62face9-d202-4099-b1af-95cec5a10f3e);}.uuid-768fc871-09d0-41ec-bce5-998b838ea926{fill:url(#uuid-9c14fa42-54c5-483a-b2ba-a3b98387f764);}.uuid-fc508d2e-3061-4a16-9260-69b940e1fc5d{fill:url(#uuid-8fa9a1e9-377c-4332-a295-483dbef0c664);}.uuid-4d78a7ee-0f0d-4116-a268-31e101efb05e{fill:url(#uuid-2c073fe8-c296-434e-bcff-b45c66644a72);}.uuid-5b2f6724-76af-4ac5-a1f4-6b8aa209483b{fill:url(#uuid-6f3462c5-3d1e-4f34-82d2-57e27f0cbc4a);}.uuid-beee0a97-0e62-481b-9a52-de12ca5f1404{fill:url(#uuid-7662f602-adb5-485f-a472-62c0539f175e);}.uuid-a4ea4227-d5a0-4387-a8d6-399f9b99c30b{fill:url(#uuid-a36f5c70-8638-4155-b65b-5006870ee1cc);}.uuid-6ae5be11-5db4-4a7d-9704-63898e335e87{fill:url(#uuid-bc095e3c-06b0-40ad-b754-dedc2110c320);}.uuid-443eb2ec-adc6-4719-ba69-48d4b881f7be{fill:url(#uuid-7934f151-ed6c-4c5b-bb8e-714e1741b8ee);}.uuid-12b52d34-614d-451b-bbf0-b3fc597d045b{fill:url(#uuid-54436a0d-eec4-4488-b063-303b283af547);}</style><linearGradient id="uuid-bc095e3c-06b0-40ad-b754-dedc2110c320" x1="-56.2824" y1="113.9961" x2="-56.2824" y2="134.6609" gradientTransform="translate(196.0977 501.7779) scale(3.0427 -3.0427)" gradientUnits="userSpaceOnUse"><stop offset="0" stop-color="#59404b"/><stop offset="1" stop-color="#59404b"/></linearGradient><linearGradient id="uuid-2c073fe8-c296-434e-bcff-b45c66644a72" x1="-24.7474" y1="113.9961" x2="-24.7474" y2="134.6608" gradientTransform="translate(196.0977 501.778) scale(3.0427 -3.0427)" xlink:href="#uuid-bc095e3c-06b0-40ad-b754-dedc2110c320"/><linearGradient id="uuid-6f3462c5-3d1e-4f34-82d2-57e27f0cbc4a" x1="-52.4827" y1="114.9234" x2="-52.4827" y2="140.1827" gradientTransform="translate(196.0977 501.778) scale(3.0427 -3.0427)" gradientUnits="userSpaceOnUse"><stop offset="0" stop-color="#e2dfcf"/><stop offset="1" stop-color="#b65534"/></linearGradient><linearGradient id="uuid-54436a0d-eec4-4488-b063-303b283af547" x1="-17.1108" y1="136.4898" x2="-40.8907" y2="119.6213" xlink:href="#uuid-6f3462c5-3d1e-4f34-82d2-57e27f0cbc4a"/><linearGradient id="uuid-7662f602-adb5-485f-a472-62c0539f175e" x1="-13.8227" y1="146.3142" x2="-42.7318" y2="130.0455" gradientTransform="translate(196.0977 501.7779) scale(3.0427 -3.0427)" xlink:href="#uuid-bc095e3c-06b0-40ad-b754-dedc2110c320"/><linearGradient id="uuid-a36f5c70-8638-4155-b65b-5006870ee1cc" x1="-38.1891" y1="124.4603" x2="-63.5127" y2="153.9851" gradientTransform="translate(196.0977 501.7779) scale(3.0427 -3.0427)" xlink:href="#uuid-bc095e3c-06b0-40ad-b754-dedc2110c320"/><linearGradient id="uuid-e62face9-d202-4099-b1af-95cec5a10f3e" x1="-40.516" y1="145.6379" x2="-40.516" y2="155.3824" gradientTransform="translate(196.0977 508.2868) scale(3.0427 -3.0427)" gradientUnits="userSpaceOnUse"><stop offset=".0003" stop-color="#e2dfcf"/><stop offset="1" stop-color="#5f7884"/></linearGradient><linearGradient id="uuid-9c14fa42-54c5-483a-b2ba-a3b98387f764" x1="-40.516" y1="153.3816" x2="-28.7518" y2="153.3816" gradientTransform="translate(196.0977 501.7779) scale(3.0427 -3.0427)" xlink:href="#uuid-bc095e3c-06b0-40ad-b754-dedc2110c320"/><linearGradient id="uuid-8fa9a1e9-377c-4332-a295-483dbef0c664" x1="-52.2802" y1="153.3816" x2="-40.5158" y2="153.3816" gradientTransform="translate(196.0977 501.7779) scale(3.0427 -3.0427)" xlink:href="#uuid-bc095e3c-06b0-40ad-b754-dedc2110c320"/><linearGradient id="uuid-7934f151-ed6c-4c5b-bb8e-714e1741b8ee" x1="0" y1="41.3639" x2="145.6429" y2="41.3639" gradientTransform="matrix(1,0,0,1,0,0)" xlink:href="#uuid-6f3462c5-3d1e-4f34-82d2-57e27f0cbc4a"/></defs><g id="uuid-42a8cf9c-3f6d-43d2-af00-1fd9f149510e"><path class="uuid-6ae5be11-5db4-4a7d-9704-63898e335e87" d="M33.9314,107.5887L0,88.3114v13.636l29.433,16.8925c7.5949,4.9444,8.5868,9.8087,8.5868,17.3379v9.4984l11.6796,6.6323v-16.9232c0-12.1698-2.136-20.054-15.768-27.7965Z"/><path class="uuid-4d78a7ee-0f0d-4116-a268-31e101efb05e" d="M107.6238,136.1777c0-7.5292.9921-12.3935,8.5861-17.3379l29.433-16.8906v-13.6239h-.0137l-33.9025,19.2634h-.0142c-13.6181,7.7425-15.7557,15.6267-15.7557,27.7965v16.9232l11.667-6.6263v-9.5045Z"/><path class="uuid-5b2f6724-76af-4ac5-a1f4-6b8aa209483b" d="M72.822,122.2562v16.9218l-23.1226,13.1305v-16.9232c0-12.1698-2.136-20.054-15.768-27.7965L0,88.3114l23.1364-13.1291,33.9167,19.262c13.6321,7.7439,15.769,15.6421,15.769,27.8119Z"/><path class="uuid-12b52d34-614d-451b-bbf0-b3fc597d045b" d="M122.5063,75.1823l23.1229,13.1431-33.9025,19.2634h-.0142c-13.6181,7.7425-15.7557,15.6267-15.7557,27.7965v16.9232l-23.1347-13.1305v-16.9218c0-6.0928.5309-11.0997,2.7661-15.5694,2.2499-4.4571,6.1771-8.3775,13.0015-12.2425l33.9167-19.262Z"/><path class="uuid-beee0a97-0e62-481b-9a52-de12ca5f1404" d="M72.822,82.7278v39.5284c0-6.0928.5309-11.0997,2.7661-15.5694,2.2499-4.4571,6.1771-8.3775,13.0015-12.2425l33.9167-19.262,23.1366-13.1447v-20.6738l-72.8209,41.364Z"/><path class="uuid-a4ea4227-d5a0-4387-a8d6-399f9b99c30b" d="M0,41.3638v20.6738l23.1364,13.1447,33.9167,19.262c13.6321,7.7439,15.769,15.6421,15.769,27.8119v-39.5284L0,41.3638Z"/><polygon class="uuid-91d11df5-a7db-475e-bd77-ab01a70bd776" points="94.8214 49.1543 72.822 61.7199 50.8214 49.1543 72.822 36.2503 94.8214 49.1543"/><polygon class="uuid-768fc871-09d0-41ec-bce5-998b838ea926" points="108.6159 41.3638 94.8214 49.1543 72.8214 36.1543 72.822 21.0272 108.6159 41.3638"/><polygon class="uuid-fc508d2e-3061-4a16-9260-69b940e1fc5d" points="72.822 21.0272 72.8214 36.1543 50.8214 49.1543 37.0272 41.3638 72.822 21.0272"/><path class="uuid-443eb2ec-adc6-4719-ba69-48d4b881f7be" d="M145.6429,41.3638l-72.8209,41.364L0,41.3638,72.822,0l72.8209,41.3638ZM85.7942,54.324l22.8217-12.9602-35.7939-20.3365-35.7948,20.3365,22.8207,12.9602,12.9741,7.3754,12.9722-7.3754Z"/></g></svg>